<svg width="18" height="18" viewBox="0 0 18 18" fill="none" xmlns="http://www.w3.org/2000/svg">
<path d="M16.5 9.00362C16.5 13.1353 13.1337 16.5 9 16.5C4.86631 16.5 1.5 13.1353 1.5 9.00362C1.5 4.86469 4.86631 1.5 9 1.5C13.1337 1.5 16.5 4.86469 16.5 9.00362Z" fill="white"/>
<path d="M12 9.00365C12 9.1932 11.9403 9.38348 11.821 9.53584C11.7987 9.56574 11.6942 9.68894 11.6122 9.76914L11.5675 9.81288C10.9411 10.477 9.38246 11.4758 8.59197 11.7959C8.59197 11.8032 8.12216 11.9934 7.89844 12H7.86861C7.52557 12 7.2049 11.8112 7.04084 11.505C6.95135 11.3366 6.86932 10.8481 6.86186 10.8416C6.79474 10.4034 6.75 9.73269 6.75 8.99635C6.75 8.2243 6.79474 7.52369 6.87678 7.09356C6.87678 7.08627 6.95881 6.69259 7.01101 6.56136C7.09304 6.37254 7.24219 6.21142 7.42862 6.10936C7.57777 6.03718 7.73438 6 7.89844 6C8.06996 6.00802 8.39062 6.11665 8.5174 6.16768C9.35263 6.48846 10.9485 7.53827 11.56 8.17983C11.6644 8.2819 11.7763 8.40656 11.8061 8.43499C11.9329 8.59538 12 8.79222 12 9.00365Z" fill="url(#paint0_linear_598_42600)"/>
<defs>
<linearGradient id="paint0_linear_598_42600" x1="6.75" y1="6.51429" x2="8.26633" y2="6.56726" gradientUnits="userSpaceOnUse">
<stop stop-color="#415EF4"/>
<stop offset="1" stop-color="#7141EF"/>
</linearGradient>
</defs>
</svg>
